<svg width="10.000000" height="10.000000" viewBox="0 0 10 10" fill="none" xmlns="http://www.w3.org/2000/svg" xmlns:xlink="http://www.w3.org/1999/xlink">
	<desc>
			Created with Pixso.
	</desc>
	<defs/>
	<path id="Vector" d="M0.14 9.85C0.34 10.04 0.65 10.04 0.85 9.85L3.54 7.15C4.22 7.68 5.07 8 6 8C8.2 8 10 6.2 10 4C10 1.79 8.2 0 6 0C3.79 0 2 1.79 2 4C2 4.92 2.31 5.77 2.83 6.45L0.14 9.14C-0.05 9.34 -0.05 9.65 0.14 9.85ZM6 7C7.65 7 9 5.65 9 4C9 2.34 7.65 1 6 1C4.34 1 3 2.34 3 4C3 5.65 4.34 7 6 7Z" fill="#FFFFFF" fill-opacity="0.786000" fill-rule="evenodd"/>
</svg>
