<svg width="16.000000" height="14.000000" viewBox="0 0 16 14" fill="none" xmlns="http://www.w3.org/2000/svg" xmlns:xlink="http://www.w3.org/1999/xlink">
	<desc>
			Created with Pixso.
	</desc>
	<defs/>
	<path id="Shape" d="M12.95 2C12.71 0.85 11.7 0 10.5 0C9.29 0 8.28 0.85 8.04 2L0.5 2C0.22 2 0 2.22 0 2.5C0 2.77 0.22 3 0.5 3L8.04 3C8.28 4.14 9.29 5 10.5 5C11.72 5 12.75 4.11 12.96 2.94C12.95 2.96 12.95 2.98 12.95 3L15.5 3C15.77 3 16 2.77 16 2.5C16 2.22 15.77 2 15.5 2L12.95 2ZM10.5 4C9.67 4 9 3.32 9 2.5C9 1.67 9.67 1 10.5 1C11.32 1 12 1.67 12 2.5C12 3.32 11.32 4 10.5 4ZM7.95 11C7.71 9.85 6.7 9 5.5 9C4.29 9 3.28 9.85 3.04 11L0.5 11C0.22 11 0 11.22 0 11.5C0 11.77 0.22 12 0.5 12L3.04 12C3.28 13.14 4.29 14 5.5 14C6.7 14 7.71 13.14 7.95 12L15.5 12C15.77 12 16 11.77 16 11.5C16 11.22 15.77 11 15.5 11L7.95 11ZM5.5 13C4.67 13 4 12.32 4 11.5C4 10.67 4.67 10 5.5 10C6.32 10 7 10.67 7 11.5C7 12.32 6.32 13 5.5 13Z" fill="#FFFFFF" fill-opacity="1.000000" fill-rule="nonzero"/>
</svg>
