<svg width="16.039062" height="16.112793" viewBox="0 0 16.0391 16.1128" fill="none" xmlns="http://www.w3.org/2000/svg" xmlns:xlink="http://www.w3.org/1999/xlink">
	<desc>
			Created with Pixso.
	</desc>
	<defs/>
	<path id="Shape" d="M6.53 0C2.94 0 0.03 2.91 0.03 6.5C0.03 7.65 0.33 8.73 0.86 9.67L0.06 11.75C-0.23 12.52 0.48 13.29 1.27 13.07L3.75 12.37C4.6 12.77 5.54 13 6.53 13C10.12 13 13.03 10.08 13.03 6.5C13.03 2.91 10.12 0 6.53 0ZM1.03 6.5C1.03 3.46 3.5 1 6.53 1C9.57 1 12.03 3.46 12.03 6.5C12.03 9.53 9.57 12 6.53 12C5.63 12 4.78 11.78 4.03 11.39L3.86 11.31L1 12.11L1.97 9.57L1.84 9.36C1.33 8.53 1.03 7.55 1.03 6.5ZM9.5 16C7.53 16 5.76 15.12 4.57 13.74C5.13 13.89 5.72 13.98 6.33 13.99C7.22 14.62 8.32 15 9.5 15C10.4 15 11.25 14.78 12 14.39L12.17 14.31L15.03 15.11L14.06 12.57L14.19 12.36C14.7 11.53 15 10.55 15 9.5C15 8.34 14.64 7.27 14.03 6.38C14.02 5.78 13.94 5.19 13.8 4.62C15.15 5.81 16 7.55 16 9.5C16 10.65 15.7 11.73 15.17 12.67L15.97 14.75C16.26 15.52 15.55 16.29 14.76 16.07L12.28 15.37C11.43 15.77 10.49 16 9.5 16Z" fill="#FFFFFF" fill-opacity="1.000000" fill-rule="nonzero"/>
</svg>
