<svg width="16.000000" height="16.000488" viewBox="0 0 16 16.0005" fill="none" xmlns="http://www.w3.org/2000/svg" xmlns:xlink="http://www.w3.org/1999/xlink">
	<desc>
			Created with Pixso.
	</desc>
	<defs/>
	<path id="Shape" d="M8 0C12.41 0 16 3.58 16 8C16 12.41 12.41 16 8 16C6.72 16 5.49 15.7 4.38 15.13L4.26 15.07L0.62 15.98C0.31 16.06 0.02 15.83 0 15.54L0 15.46L0.01 15.37L0.92 11.73L0.86 11.61C0.4 10.71 0.12 9.74 0.03 8.72L0 8.34L0 8C0 3.58 3.58 0 8 0ZM8 1C4.13 1 1 4.13 1 8C1 9.21 1.31 10.38 1.89 11.42C1.94 11.5 1.96 11.6 1.95 11.69L1.94 11.79L1.18 14.81L4.21 14.05C4.27 14.04 4.33 14.03 4.39 14.04L4.49 14.06L4.57 14.1C5.61 14.68 6.78 15 8 15C11.86 15 15 11.86 15 8C15 4.13 11.86 1 8 1ZM8.5 9C8.77 9 9 9.22 9 9.5C9 9.74 8.82 9.94 8.58 9.99L8.5 10L5.5 10C5.22 10 5 9.77 5 9.5C5 9.25 5.17 9.05 5.41 9L5.5 9L8.5 9ZM10.5 6C10.77 6 11 6.22 11 6.5C11 6.74 10.82 6.94 10.58 6.99L10.5 7L5.5 7C5.22 7 5 6.77 5 6.5C5 6.25 5.17 6.05 5.41 6L5.5 6L10.5 6Z" fill="#FFFFFF" fill-opacity="1.000000" fill-rule="nonzero"/>
</svg>
