<svg width="20.000000" height="20.000000" viewBox="0 0 20 20" fill="none" xmlns="http://www.w3.org/2000/svg" xmlns:xlink="http://www.w3.org/1999/xlink">
	<desc>
			Created with Pixso.
	</desc>
	<defs>
		<clipPath id="clip115_5849">
			<rect id="Folder" width="20.000000" height="20.000000" fill="white" fill-opacity="0"/>
		</clipPath>
	</defs>
	<g clip-path="url(#clip115_5849)">
		<path id="Shape" d="M7.16 3C7.43 3 7.7 3.07 7.93 3.2L8.06 3.29L9.66 4.5L15.5 4.5C16.77 4.5 17.81 5.44 17.97 6.67L17.99 6.83L18 7L18 14.5C18 15.82 16.96 16.91 15.66 16.99L15.5 17L4.5 17C3.17 17 2.08 15.96 2 14.66L2 14.5L2 5.5C2 4.17 3.03 3.08 4.33 3L4.5 3L7.16 3ZM8.15 7.03C7.9 7.29 7.57 7.45 7.22 7.49L7.07 7.5L3 7.49L3 14.5C3 15.27 3.59 15.92 4.35 15.99L4.5 16L15.5 16C16.27 16 16.92 15.4 16.99 14.64L17 14.5L17 7C17 6.22 16.4 5.57 15.64 5.5L15.5 5.5L9.61 5.5L8.15 7.03ZM7.16 4L4.5 4C3.72 4 3.07 4.59 3 5.35L3 5.5L3 6.49L7.07 6.5C7.18 6.5 7.28 6.46 7.37 6.39L7.43 6.34L8.69 5.02L7.46 4.1C7.4 4.05 7.32 4.01 7.24 4L7.16 4Z" fill="#FFFFFF" fill-opacity="1.000000" fill-rule="nonzero"/>
	</g>
</svg>
