<svg width="16.000977" height="16.000977" viewBox="0 0 16.001 16.001" fill="none" xmlns="http://www.w3.org/2000/svg" xmlns:xlink="http://www.w3.org/1999/xlink">
	<desc>
			Created with Pixso.
	</desc>
	<defs/>
	<path id="Shape" d="M0 8C0 3.58 3.58 0 8 0C12.41 0 16 3.58 16 8C16 12.41 12.41 16 8 16C3.58 16 0 12.41 0 8ZM8 1C7.91 1 7.83 1 7.74 1C7.86 1.22 7.99 1.5 8.11 1.82C8.39 2.57 8.64 3.64 8.2 4.58C7.79 5.44 7.1 5.66 6.57 5.8L6.47 5.83C5.96 5.96 5.71 6.02 5.54 6.29C5.37 6.55 5.41 6.86 5.58 7.4C5.59 7.44 5.6 7.48 5.61 7.53C5.68 7.74 5.76 7.98 5.8 8.21C5.85 8.5 5.86 8.85 5.68 9.18C5.51 9.53 5.27 9.76 5 9.91C4.74 10.05 4.46 10.1 4.25 10.14L4.16 10.16C3.75 10.23 3.52 10.27 3.29 10.51C3.12 10.7 3.02 11.02 2.96 11.45C2.93 11.63 2.92 11.8 2.9 11.98L2.9 12.08C2.88 12.28 2.86 12.5 2.82 12.68L2.81 12.7C4.09 14.11 5.94 15 8 15C9.35 15 10.61 14.61 11.68 13.95C11.59 13.87 11.5 13.76 11.4 13.64C11.13 13.3 10.79 12.74 10.91 12.08C10.97 11.76 11.14 11.49 11.31 11.28C11.48 11.06 11.69 10.86 11.88 10.69C11.93 10.65 11.97 10.61 12.01 10.57C12.16 10.44 12.28 10.32 12.39 10.21C12.54 10.05 12.58 9.97 12.59 9.94C12.66 9.72 12.58 9.54 12.47 9.45C12.37 9.38 12.17 9.31 11.86 9.51C11.74 9.59 11.63 9.65 11.53 9.7C11.45 9.75 11.33 9.8 11.2 9.82C11.04 9.85 10.82 9.83 10.65 9.65C10.53 9.51 10.49 9.35 10.48 9.27C10.46 9.18 10.45 9.08 10.45 9L10.44 8.93C10.44 8.86 10.43 8.78 10.42 8.69C10.4 8.47 10.36 8.2 10.28 7.87C10.15 7.38 9.84 6.98 9.51 6.57C9.47 6.51 9.42 6.45 9.37 6.39C9.21 6.18 9.01 5.91 8.94 5.62C8.89 5.45 8.89 5.26 8.96 5.07C9.03 4.88 9.16 4.73 9.31 4.62C9.74 4.3 10.44 3.61 11.06 2.97C11.36 2.65 11.63 2.36 11.83 2.15C11.83 2.15 11.83 2.14 11.84 2.14C10.73 1.42 9.41 1 8 1ZM12.63 2.75C12.61 2.78 12.59 2.8 12.56 2.83C12.36 3.04 12.08 3.34 11.78 3.66C11.17 4.29 10.42 5.04 9.92 5.41C9.95 5.48 10.02 5.59 10.16 5.77C10.2 5.82 10.24 5.88 10.29 5.93C10.6 6.33 11.06 6.9 11.25 7.61C11.35 8.01 11.39 8.34 11.42 8.6L11.42 8.61C12.01 8.28 12.63 8.31 13.08 8.66C13.54 9.02 13.73 9.63 13.55 10.23C13.47 10.5 13.28 10.73 13.12 10.9C12.98 11.04 12.82 11.19 12.67 11.32C12.63 11.36 12.6 11.39 12.56 11.42C12.37 11.6 12.21 11.75 12.09 11.91C11.96 12.06 11.91 12.18 11.9 12.25C11.85 12.48 11.97 12.75 12.19 13.02C12.29 13.15 12.39 13.26 12.48 13.33C12.49 13.34 12.49 13.35 12.5 13.35C14.03 12.07 15 10.15 15 8C15 5.91 14.08 4.03 12.63 2.75ZM6.79 1.35C6.74 1.25 6.69 1.18 6.66 1.12C3.43 1.75 1 4.59 1 8C1 9.28 1.34 10.48 1.94 11.51C1.95 11.45 1.96 11.38 1.97 11.32C2.03 10.85 2.16 10.26 2.56 9.83C3.02 9.33 3.59 9.24 3.97 9.18C4 9.17 4.04 9.16 4.07 9.16C4.28 9.12 4.41 9.09 4.52 9.03C4.61 8.98 4.71 8.9 4.8 8.72C4.83 8.67 4.85 8.57 4.81 8.38C4.79 8.22 4.73 8.06 4.67 7.85C4.65 7.8 4.64 7.75 4.62 7.69C4.47 7.2 4.25 6.43 4.7 5.74C5.1 5.13 5.74 4.97 6.18 4.87C6.23 4.86 6.27 4.85 6.32 4.83C6.78 4.71 7.09 4.59 7.29 4.16C7.55 3.6 7.44 2.86 7.18 2.18C7.05 1.85 6.91 1.56 6.79 1.35Z" fill="#FFFFFF" fill-opacity="1.000000" fill-rule="nonzero"/>
</svg>
