<svg width="13.995605" height="15.500000" viewBox="0 0 13.9956 15.5" fill="none" xmlns="http://www.w3.org/2000/svg" xmlns:xlink="http://www.w3.org/1999/xlink">
	<desc>
			Created with Pixso.
	</desc>
	<defs/>
	<path id="Shape" d="M6.99 0C10.14 0 12.73 2.33 12.97 5.35L12.99 5.57L12.99 5.8L12.99 9.39L13.91 11.62C13.94 11.67 13.95 11.73 13.97 11.78L13.98 11.87L13.99 12C13.99 12.45 13.69 12.83 13.24 12.96L13.13 12.99L12.99 13L9.49 13L9.48 13.16C9.4 14.46 8.31 15.5 6.99 15.5C5.66 15.5 4.58 14.46 4.49 13.16L4.49 13L0.99 13C0.9 13 0.81 12.99 0.73 12.97L0.6 12.92C0.19 12.75 -0.05 12.33 0 11.87L0.02 11.74L0.07 11.62L0.99 9.4L0.99 5.79L0.99 5.56C1.12 2.45 3.76 0 6.99 0ZM8.49 13L5.49 13L5.5 13.14C5.56 13.85 6.13 14.42 6.84 14.49L6.99 14.5C7.77 14.5 8.41 13.9 8.48 13.14L8.49 13ZM6.99 1C4.36 1 2.22 2.92 2.01 5.38L1.99 5.59L1.99 5.8L1.99 9.5L1.95 9.69L0.99 12L12.95 12L12.99 12L12.03 9.69L11.99 9.5L11.99 5.81L11.99 5.6C11.88 3.03 9.68 1 6.99 1Z" fill="#FFFFFF" fill-opacity="1.000000" fill-rule="nonzero"/>
</svg>
