<svg width="12.000000" height="15.000000" viewBox="0 0 12 15" fill="none" xmlns="http://www.w3.org/2000/svg" xmlns:xlink="http://www.w3.org/1999/xlink">
	<desc>
			Created with Pixso.
	</desc>
	<defs/>
	<path id="Shape" d="M6 0C7.65 0 9 1.34 9 3L9 4L10 4C11.1 4 12 4.89 12 6L12 13C12 14.1 11.1 15 10 15L2 15C0.89 15 0 14.1 0 13L0 6C0 4.89 0.89 4 2 4L3 4L3 3C3 1.34 4.34 0 6 0ZM10 5L2 5C1.44 5 1 5.44 1 6L1 13C1 13.55 1.44 14 2 14L10 14C10.55 14 11 13.55 11 13L11 6C11 5.44 10.55 5 10 5ZM6 8.5C6.55 8.5 7 8.94 7 9.5C7 10.05 6.55 10.5 6 10.5C5.44 10.5 5 10.05 5 9.5C5 8.94 5.44 8.5 6 8.5ZM6 1C4.89 1 4 1.89 4 3L4 4L8 4L8 3C8 1.89 7.1 1 6 1Z" fill="#FFFFFF" fill-opacity="1.000000" fill-rule="nonzero"/>
</svg>
