<svg width="20.000000" height="20.000000" viewBox="0 0 20 20" fill="none" xmlns="http://www.w3.org/2000/svg" xmlns:xlink="http://www.w3.org/1999/xlink">
	<desc>
			Created with Pixso.
	</desc>
	<defs>
		<clipPath id="clip115_5844">
			<rect id="Sticker" width="20.000000" height="20.000000" fill="white" fill-opacity="0"/>
		</clipPath>
	</defs>
	<g clip-path="url(#clip115_5844)">
		<path id="Shape" d="M15.11 2C16.65 2 17.91 3.2 17.99 4.72L18 4.88L18 10.93C18 11.46 17.81 11.97 17.46 12.37L17.34 12.5L12.5 17.34C12.12 17.72 11.63 17.95 11.1 17.99L10.93 18L4.88 18C3.34 18 2.08 16.79 2 15.27L2 15.11L2 4.88C2 3.34 3.2 2.08 4.72 2L4.88 2L15.11 2ZM15.03 3L4.96 3C3.92 3 3.07 3.8 3 4.83L3 4.96L3 15.03C3 16.07 3.8 16.92 4.83 16.99L4.96 17L10.99 17L10.99 13.9C9.29 14.22 7.45 13.71 6.14 12.39C5.95 12.19 5.95 11.88 6.14 11.68C6.34 11.49 6.66 11.49 6.85 11.68C7.98 12.82 9.58 13.22 11.03 12.87C11.04 12.81 11.04 12.76 11.05 12.72C11.43 11.69 12.4 11.06 13.55 11L13.71 11L17 11L17 4.96C17 3.92 16.19 3.07 15.16 3L15.03 3ZM16.58 12L13.82 12C12.85 12 12.06 12.74 12 13.69L12 13.82L12 16.58L12.08 16.5L16.5 12.08C16.53 12.05 16.56 12.03 16.58 12ZM7 7C7.55 7 8 7.44 8 8C8 8.55 7.55 9 7 9C6.44 9 6 8.55 6 8C6 7.44 6.44 7 7 7ZM13 7C13.55 7 14 7.44 14 8C14 8.55 13.55 9 13 9C12.44 9 12 8.55 12 8C12 7.44 12.44 7 13 7Z" fill="#FFFFFF" fill-opacity="1.000000" fill-rule="nonzero"/>
	</g>
</svg>
