<svg width="16.000000" height="16.000000" viewBox="0 0 16 16" fill="none" xmlns="http://www.w3.org/2000/svg" xmlns:xlink="http://www.w3.org/1999/xlink">
	<desc>
			Created with Pixso.
	</desc>
	<defs/>
	<path id="Shape" d="M8 0C12.41 0 16 3.58 16 8C16 12.41 12.41 16 8 16C3.58 16 0 12.41 0 8C0 3.58 3.58 0 8 0ZM8 1C4.13 1 1 4.13 1 8C1 11.86 4.13 15 8 15C11.86 15 15 11.86 15 8C15 4.13 11.86 1 8 1ZM8 11.5C8.41 11.5 8.75 11.83 8.75 12.25C8.75 12.66 8.41 13 8 13C7.58 13 7.25 12.66 7.25 12.25C7.25 11.83 7.58 11.5 8 11.5ZM8 3.5C9.38 3.5 10.5 4.61 10.5 6C10.5 6.72 10.18 7.4 9.65 7.87L9.49 8L9.27 8.16L9.19 8.23C9.13 8.28 9.08 8.33 9.03 8.38C8.69 8.74 8.5 9.24 8.5 10C8.5 10.27 8.27 10.5 8 10.5C7.72 10.5 7.5 10.27 7.5 10C7.5 8.98 7.79 8.24 8.3 7.7C8.41 7.58 8.53 7.47 8.66 7.37L8.9 7.19L9.02 7.09C9.32 6.81 9.5 6.42 9.5 6C9.5 5.17 8.82 4.5 8 4.5C7.17 4.5 6.5 5.17 6.5 6C6.5 6.27 6.27 6.5 6 6.5C5.72 6.5 5.5 6.27 5.5 6C5.5 4.61 6.61 3.5 8 3.5Z" fill="#FFFFFF" fill-opacity="1.000000" fill-rule="nonzero"/>
</svg>
