<svg width="20.000000" height="20.000000" viewBox="0 0 20 20" fill="none" xmlns="http://www.w3.org/2000/svg" xmlns:xlink="http://www.w3.org/1999/xlink">
	<desc>
			Created with Pixso.
	</desc>
	<defs>
		<clipPath id="clip115_5921">
			<rect id="Megaphone" width="20.000000" height="20.000000" fill="white" fill-opacity="0"/>
		</clipPath>
	</defs>
	<g clip-path="url(#clip115_5921)">
		<path id="Shape" d="M18 4.8C18 3.81 17.06 3.09 16.11 3.35L3.11 6.81C2.45 6.99 2 7.58 2 8.26L2 10.77C2 11.42 2.41 11.99 3.02 12.2L5 12.86L5 13.75C5 15.54 6.45 17 8.25 17C9.62 17 10.79 16.15 11.27 14.95L16.02 16.53C16.99 16.85 18 16.13 18 15.11L18 4.8ZM10.31 14.63C9.97 15.43 9.17 16 8.25 16C7 16 6 14.99 6 13.75L6 13.19L10.31 14.63ZM16.37 4.31C16.68 4.23 17 4.47 17 4.8L17 15.11C17 15.45 16.66 15.69 16.34 15.58L3.34 11.25C3.13 11.18 3 10.99 3 10.77L3 8.26C3 8.04 3.15 7.84 3.37 7.78L16.37 4.31Z" fill="#FFFFFF" fill-opacity="1.000000" fill-rule="nonzero"/>
	</g>
</svg>
