<svg width="16.000000" height="15.000000" viewBox="0 0 16 15" fill="none" xmlns="http://www.w3.org/2000/svg" xmlns:xlink="http://www.w3.org/1999/xlink">
	<desc>
			Created with Pixso.
	</desc>
	<defs/>
	<path id="Shape" d="M9 8C10.1 8 11 8.89 11 10L11 11.5C11 13.55 8.91 15 5.5 15C2.08 15 0 13.55 0 11.5L0 10C0 8.89 0.89 8 2 8L9 8ZM9 9L2 9C1.44 9 1 9.44 1 10L1 11.5C1 12.9 2.57 14 5.5 14C8.42 14 10 12.9 10 11.5L10 10C10 9.44 9.55 9 9 9ZM14 8C15.1 8 16 8.89 16 10L16 10.5C16 12.58 14.43 14 11.5 14C11.35 14 11.22 13.99 11.08 13.99C11.29 13.74 11.46 13.48 11.6 13.2L11.7 12.99L11.74 12.99C13.97 12.93 15 11.95 15 10.5L15 10C15 9.44 14.55 9 14 9L11.82 8.99C11.69 8.62 11.49 8.28 11.23 7.99L14 8ZM5.5 0C7.43 0 9 1.56 9 3.5C9 5.43 7.43 7 5.5 7C3.56 7 2 5.43 2 3.5C2 1.56 3.56 0 5.5 0ZM12.5 2C13.88 2 15 3.11 15 4.5C15 5.88 13.88 7 12.5 7C11.11 7 10 5.88 10 4.5C10 3.11 11.11 2 12.5 2ZM5.5 1C4.11 1 3 2.11 3 3.5C3 4.88 4.11 6 5.5 6C6.88 6 8 4.88 8 3.5C8 2.11 6.88 1 5.5 1ZM12.5 3C11.67 3 11 3.67 11 4.5C11 5.32 11.67 6 12.5 6C13.32 6 14 5.32 14 4.5C14 3.67 13.32 3 12.5 3Z" fill="#FFFFFF" fill-opacity="1.000000" fill-rule="nonzero"/>
</svg>
