<svg width="14.000000" height="16.000000" viewBox="0 0 14 16" fill="none" xmlns="http://www.w3.org/2000/svg" xmlns:xlink="http://www.w3.org/1999/xlink">
	<desc>
			Created with Pixso.
	</desc>
	<defs/>
	<path id="Shape" d="M7 0C4.79 0 3 1.79 3 4C3 6.2 4.79 8 7 8C9.2 8 11 6.2 11 4C11 1.79 9.2 0 7 0ZM4 4C4 2.34 5.34 1 7 1C8.65 1 10 2.34 10 4C10 5.65 8.65 7 7 7C5.34 7 4 5.65 4 4ZM2 9C0.9 9 0 9.88 0 11C0 12.69 0.83 13.96 2.13 14.79C3.41 15.61 5.14 16 7 16C8.85 16 10.58 15.61 11.86 14.79C13.16 13.96 14 12.69 14 11C14 9.89 13.1 9 12 9L2 9ZM1 11C1 10.44 1.44 10 2 10L12 10C12.55 10 13 10.44 13 11C13 12.3 12.37 13.28 11.32 13.95C10.25 14.63 8.73 15 7 15C5.26 15 3.74 14.63 2.67 13.95C1.62 13.28 1 12.3 1 11Z" fill="#FFFFFF" fill-opacity="1.000000" fill-rule="nonzero"/>
</svg>
